<?xml version="1.0" encoding="UTF-8" standalone="no"?>
<!-- Created with Inkscape (http://www.inkscape.org/) -->

<svg
   xmlns:dc="http://purl.org/dc/elements/1.1/"
   xmlns:cc="http://creativecommons.org/ns#"
   xmlns:rdf="http://www.w3.org/1999/02/22-rdf-syntax-ns#"
   xmlns:svg="http://www.w3.org/2000/svg"
   xmlns="http://www.w3.org/2000/svg"
   xmlns:sodipodi="http://sodipodi.sourceforge.net/DTD/sodipodi-0.dtd"
   xmlns:inkscape="http://www.inkscape.org/namespaces/inkscape"
   width="300"
   height="71.289001"
   viewBox="0 0 79.374998 18.861882"
   version="1.1"
   id="svg8"
   inkscape:version="0.92.4 (5da689c313, 2019-01-14)"
   sodipodi:docname="dasher_logo-dark.svg">
  <defs
     id="defs2" />
  <sodipodi:namedview
     id="base"
     pagecolor="#ffffff"
     bordercolor="#666666"
     borderopacity="1.0"
     inkscape:pageopacity="0.0"
     inkscape:pageshadow="2"
     inkscape:zoom="2.8284271"
     inkscape:cx="84.384133"
     inkscape:cy="78.558843"
     inkscape:document-units="mm"
     inkscape:current-layer="layer1"
     showgrid="false"
     units="px"
     inkscape:window-width="1680"
     inkscape:window-height="1027"
     inkscape:window-x="1672"
     inkscape:window-y="-8"
     inkscape:window-maximized="1" />
  <metadata
     id="metadata5">
    <rdf:RDF>
      <cc:Work
         rdf:about="">
        <dc:format>image/svg+xml</dc:format>
        <dc:type
           rdf:resource="http://purl.org/dc/dcmitype/StillImage" />
        <dc:title></dc:title>
      </cc:Work>
    </rdf:RDF>
  </metadata>
  <g
     inkscape:label="Ebene 1"
     inkscape:groupmode="layer"
     id="layer1"
     transform="translate(0,-278.1381)">
    <g
       id="g893"
       transform="matrix(2.5941565,0,0,2.5941565,-75.457099,134.66642)"
       style="fill:#1c1d1f;fill-opacity:1">
      <path
         d="m 29.087335,55.496958 h 1.462443 q 1.519287,0 2.309936,0.868164 0.79065,0.862994 0.79065,2.526977 0,1.260904 -0.392741,2.036051 -0.387573,0.775147 -1.090373,1.121378 -0.697631,0.346231 -1.545125,0.346231 h -1.53479 z m 1.565796,1.467609 v 3.958416 q 0.713135,-0.06201 1.00769,-0.501262 0.294556,-0.444417 0.294556,-1.457277 0,-0.599445 -0.103353,-1.012857 -0.103353,-0.418578 -0.310059,-0.640789 -0.201538,-0.227375 -0.397908,-0.27905 -0.191203,-0.05168 -0.490926,-0.06718 z"
         style="font-style:normal;font-variant:normal;font-weight:normal;font-stretch:normal;font-size:40px;line-height:1.25;font-family:'Tw Cen MT Condensed Extra Bold';-inkscape-font-specification:'Tw Cen MT Condensed Extra Bold, ';letter-spacing:0px;word-spacing:0px;fill:#1c1d1f;fill-opacity:1;stroke:none;stroke-width:0.26458332"
         id="path823"
         inkscape:connector-curvature="0" />
      <path
         transform="scale(0.26458333)"
         id="path825"
         d="m 135.12109,209.75195 -6.91406,26.07422 h 6.03516 l 1.03515,-4.35547 1.07422,-4.6875 c 0.84636,-3.77604 1.50391,-7.46745 1.97266,-11.07422 h 0.0781 c 0.44271,3.5026 1.10677,7.19401 1.99219,11.07422 l 1.13281,4.6875 0.9961,4.35547 h 6.15234 l -6.91406,-26.07422 z"
         style="font-style:normal;font-variant:normal;font-weight:normal;font-stretch:normal;font-size:40px;line-height:1.25;font-family:'Tw Cen MT Condensed Extra Bold';-inkscape-font-specification:'Tw Cen MT Condensed Extra Bold, ';letter-spacing:0px;word-spacing:0px;fill:#1c1d1f;fill-opacity:1;stroke:none;stroke-width:0.99999994"
         inkscape:connector-curvature="0" />
      <path
         d="m 40.125421,62.266568 v -1.607137 q 0.74414,0.434083 1.250569,0.434083 0.294556,0 0.465088,-0.160197 0.170533,-0.165364 0.170533,-0.434081 0,-0.206705 -0.139527,-0.387574 -0.134359,-0.180867 -0.470255,-0.439248 -0.81132,-0.620118 -1.178223,-1.152385 -0.361735,-0.537435 -0.361735,-1.193726 0,-0.894003 0.563273,-1.457275 0.563273,-0.563274 1.457275,-0.563274 0.661459,0 1.312582,0.284221 v 1.545124 q -0.697632,-0.382405 -1.131714,-0.382405 -0.289388,0 -0.45992,0.144693 -0.165365,0.139528 -0.165365,0.387575 0,0.43408 0.780314,0.976683 0.465088,0.320394 0.940511,0.904338 0.480591,0.578776 0.480591,1.343588 0,0.894001 -0.625285,1.483114 -0.625285,0.583943 -1.586466,0.583943 -0.656291,0 -1.302246,-0.31006 z"
         style="font-style:normal;font-variant:normal;font-weight:normal;font-stretch:normal;font-size:40px;line-height:1.25;font-family:'Tw Cen MT Condensed Extra Bold';-inkscape-font-specification:'Tw Cen MT Condensed Extra Bold, ';letter-spacing:0px;word-spacing:0px;fill:#1c1d1f;fill-opacity:1;stroke:none;stroke-width:0.26458332"
         id="path827"
         inkscape:connector-curvature="0" />
      <path
         d="m 44.755629,55.496958 h 1.565796 v 2.557981 h 1.390096 v -2.557981 h 1.565797 v 6.898801 h -1.565797 v -2.868041 h -1.390096 v 2.868041 h -1.565796 z"
         style="font-style:normal;font-variant:normal;font-weight:normal;font-stretch:normal;font-size:40px;line-height:1.25;font-family:'Tw Cen MT Condensed Extra Bold';-inkscape-font-specification:'Tw Cen MT Condensed Extra Bold, ';letter-spacing:0px;word-spacing:0px;fill:#1c1d1f;fill-opacity:1;stroke:none;stroke-width:0.26458332"
         id="path829"
         inkscape:connector-curvature="0" />
      <path
         transform="scale(0.26458333)"
         id="path873"
         d="m 197.72852,230.25977 h -5.91797 v 5.5664 h 12.01172 v -5.5664 z"
         style="font-style:normal;font-variant:normal;font-weight:normal;font-stretch:normal;font-size:40px;line-height:1.25;font-family:'Tw Cen MT Condensed Extra Bold';-inkscape-font-specification:'Tw Cen MT Condensed Extra Bold, ';letter-spacing:0px;word-spacing:0px;fill:#1c1d1f;fill-opacity:1;stroke:none;stroke-width:0.99999994"
         inkscape:connector-curvature="0" />
      <path
         inkscape:connector-curvature="0"
         style="font-style:normal;font-variant:normal;font-weight:normal;font-stretch:normal;font-size:40px;line-height:1.25;font-family:'Tw Cen MT Condensed Extra Bold';-inkscape-font-specification:'Tw Cen MT Condensed Extra Bold, ';letter-spacing:0px;word-spacing:0px;fill:#1c1d1f;fill-opacity:1;stroke:none;stroke-width:0.26130202"
         d="m 50.749874,58.235722 v 1.431436 h 1.565796 1.601968 v -1.431436 z"
         id="path875" />
      <path
         transform="scale(0.26458333)"
         id="path831"
         d="m 191.81055,209.75195 v 5.54688 h 5.91797 6.05468 v -5.54688 z"
         style="font-style:normal;font-variant:normal;font-weight:normal;font-stretch:normal;font-size:40px;line-height:1.25;font-family:'Tw Cen MT Condensed Extra Bold';-inkscape-font-specification:'Tw Cen MT Condensed Extra Bold, ';letter-spacing:0px;word-spacing:0px;fill:#1c1d1f;fill-opacity:1;stroke:none;stroke-width:0.99999994"
         inkscape:connector-curvature="0" />
      <path
         d="m 55.173597,55.496958 h 1.824178 q 1.105876,0 1.746665,0.568439 0.640787,0.568441 0.640787,1.545127 0,0.501261 -0.24288,0.971515 -0.24288,0.465087 -0.707967,0.7028 l 1.250569,3.11092 h -1.653646 l -1.266071,-3.141927 h -0.02585 v 3.141927 h -1.565797 z m 1.565796,1.333251 v 1.638141 q 1.038696,-0.02066 1.038696,-0.728636 0,-0.480591 -0.242879,-0.687297 -0.23771,-0.206706 -0.795817,-0.222208 z"
         style="font-style:normal;font-variant:normal;font-weight:normal;font-stretch:normal;font-size:40px;line-height:1.25;font-family:'Tw Cen MT Condensed Extra Bold';-inkscape-font-specification:'Tw Cen MT Condensed Extra Bold, ';letter-spacing:0px;word-spacing:0px;fill:#1c1d1f;fill-opacity:1;stroke:none;stroke-width:0.26458332"
         id="path833"
         inkscape:connector-curvature="0" />
    </g>
  </g>
</svg>
